<?xml version="1.0" encoding="UTF-8" standalone="no"?>
<svg
   xmlns:dc="http://purl.org/dc/elements/1.1/"
   xmlns:cc="http://creativecommons.org/ns#"
   xmlns:rdf="http://www.w3.org/1999/02/22-rdf-syntax-ns#"
   xmlns:svg="http://www.w3.org/2000/svg"
   xmlns="http://www.w3.org/2000/svg"
   xmlns:sodipodi="http://sodipodi.sourceforge.net/DTD/sodipodi-0.dtd"
   xmlns:inkscape="http://www.inkscape.org/namespaces/inkscape"
   inkscape:version="1.0 (4035a4fb49, 2020-05-01)"
   sodipodi:docname="footer.svg"
   id="svg10"
   version="1.1"
   viewBox="0 0 1922.002 448.145">
  <metadata
     id="metadata14">
    <rdf:RDF>
      <cc:Work
         rdf:about="">
        <dc:format>image/svg+xml</dc:format>
        <dc:type
           rdf:resource="http://purl.org/dc/dcmitype/StillImage" />
      </cc:Work>
    </rdf:RDF>
  </metadata>
  <sodipodi:namedview
     inkscape:current-layer="layer3"
     inkscape:window-maximized="1"
     inkscape:window-y="-8"
     inkscape:window-x="-8"
     inkscape:cy="129.80884"
     inkscape:cx="1675.7833"
     inkscape:zoom="0.70710678"
     showgrid="false"
     id="namedview12"
     inkscape:window-height="1137"
     inkscape:window-width="1920"
     inkscape:pageshadow="2"
     inkscape:pageopacity="0"
     guidetolerance="10"
     gridtolerance="10"
     objecttolerance="10"
     borderopacity="1"
     bordercolor="#666666"
     pagecolor="#ffffff" />
  <defs
     id="defs4">
    <style
       id="style2">
      .cls-1, .cls-2, .cls-3 {
        fill: #efeeff;
      }

      .cls-1 {
        opacity: 0.401;
      }

      .cls-2 {
        opacity: 0.217;
      }
    </style>
  </defs>
  <g
     sodipodi:insensitive="true"
     style="display:inline"
     inkscape:label="Layer 1"
     id="layer1"
     inkscape:groupmode="layer">
    <path
       style="stroke-width:1.04762"
       id="Path_299"
       data-name="Path 299"
       class="cls-2"
       d="m 0,157.0881 c 0,0 254.784,-108.981483 603.256,0 348.472,108.98149 980.587,-129.370789 980.587,-129.370789 0,0 214.683,-39.790864 338.115,-24.0209248 0.167,0.058167 -0.222,442.4637438 0,441.5561138 L 972.227,431.01686 0,445.74198 Z" />
  </g>
  <g
     style="display:inline;opacity:0.54114713"
     inkscape:label="Layer 3"
     id="layer3"
     inkscape:groupmode="layer">
    <path
       style="opacity:0.715711"
       id="Path_289"
       data-name="Path 289"
       class="cls-3"
       d="m 0.28133,191.986 c 96.5,-22.961 295.183,-53.288 539.811,16.417 348.47197,99.3 980.58697,-117.878 980.58697,-117.878 0,0 118.549,-78.494 356.9,21.041 a 253.947,253.947 0 0 1 43.147,22.693 c 0.267,1.019 -0.135,314.673 0,313.447 -0.384,-0.362 -1920.44497,0.607 -1920.44497,0.607 0,0 0.162,-256.355 0,-256.327 z" />
  </g>
  <g
     sodipodi:insensitive="true"
     style="display:inline;opacity:0.778055"
     inkscape:label="Layer 2"
     id="layer2"
     inkscape:groupmode="layer">
    <path
       style="stroke-width:1.04201"
       id="Path_290"
       data-name="Path 290"
       class="cls-1"
       d="m 0.26266126,185.133 c 0,0 276.64109874,-99.3 655.00738874,0 378.36625,99.3 1064.70845,-117.878 1064.70845,-117.878 0,0 66.727,-36.249 200.7478,-21.879 0.1813,0.053 -0.241,403.157 0,402.33 L 1055.8971,434.728 0.26591862,448.145 Z" />
  </g>
</svg>
