<?xml version="1.0" encoding="UTF-8" standalone="no"?>
<svg
   xmlns:dc="http://purl.org/dc/elements/1.1/"
   xmlns:cc="http://creativecommons.org/ns#"
   xmlns:rdf="http://www.w3.org/1999/02/22-rdf-syntax-ns#"
   xmlns:svg="http://www.w3.org/2000/svg"
   xmlns="http://www.w3.org/2000/svg"
   xmlns:xlink="http://www.w3.org/1999/xlink"
   xmlns:sodipodi="http://sodipodi.sourceforge.net/DTD/sodipodi-0.dtd"
   xmlns:inkscape="http://www.inkscape.org/namespaces/inkscape"
   inkscape:version="1.0 (4035a4fb49, 2020-05-01)"
   sodipodi:docname="intro.svg"
   version="1.1"
   viewBox="0 0 1139.17088 654.54324"
   height="654.54324"
   width="1139.17088"
   data-name="Layer 1"
   id="b6117b06-2b45-45bc-b789-4a82ab6612dd">
  <metadata
     id="metadata91">
    <rdf:RDF>
      <cc:Work
         rdf:about="">
        <dc:format>image/svg+xml</dc:format>
        <dc:type
           rdf:resource="http://purl.org/dc/dcmitype/StillImage" />
        <dc:title>progressive_app</dc:title>
      </cc:Work>
    </rdf:RDF>
  </metadata>
  <defs
     id="defs89">
    <linearGradient
       id="43bfcda2-dcfb-4411-a28b-16db327cb63c"
       x1="664.41998"
       y1="277"
       x2="664.41998"
       y2="115"
       xlink:href="#e6219774-622b-406f-ae45-f26a74b1f5cd" />
    <linearGradient
       id="e6219774-622b-406f-ae45-f26a74b1f5cd"
       x1="477.09"
       y1="779.21997"
       x2="477.09"
       y2="120.78"
       gradientUnits="userSpaceOnUse">
      <stop
         offset="0"
         stop-color="gray"
         stop-opacity="0.25"
         id="stop2" />
      <stop
         offset="0.54"
         stop-color="gray"
         stop-opacity="0.12"
         id="stop4" />
      <stop
         offset="1"
         stop-color="gray"
         stop-opacity="0.1"
         id="stop6" />
    </linearGradient>
    <linearGradient
       id="894cb520-7283-4f65-92a7-edb841614828"
       x1="773.41998"
       y1="549"
       x2="773.41998"
       y2="387"
       xlink:href="#e6219774-622b-406f-ae45-f26a74b1f5cd" />
  </defs>
  <sodipodi:namedview
     inkscape:current-layer="layer2"
     inkscape:window-maximized="1"
     inkscape:window-y="-8"
     inkscape:window-x="-8"
     inkscape:cy="342.22309"
     inkscape:cx="641.3891"
     inkscape:zoom="0.95946976"
     showgrid="false"
     id="namedview87"
     inkscape:window-height="1137"
     inkscape:window-width="1920"
     inkscape:pageshadow="2"
     inkscape:pageopacity="0"
     guidetolerance="10"
     gridtolerance="10"
     objecttolerance="10"
     borderopacity="1"
     bordercolor="#666666"
     pagecolor="#212121"
     inkscape:document-rotation="0" />
  <title
     id="title2">progressive_app</title>
  <g
     inkscape:groupmode="layer"
     id="layer1"
     inkscape:label="Layer 1">
    <path
       style="display:inline;stroke-width:0.908516;fill:#4d4d53;fill-opacity:1"
       id="path58"
       fill="#3f3d56"
       d="m 1094.469,206.7311 h -2.161 V 147.53089 A 34.263452,34.263452 0 0 0 1058.0444,113.2674 H 932.62087 a 34.263443,34.263443 0 0 0 -34.26351,34.26349 v 324.77676 a 34.263452,34.263452 0 0 0 34.26351,34.26349 h 125.42353 a 34.263452,34.263452 0 0 0 34.2636,-34.26349 V 248.87077 h 2.161 z" />
    <path
       style="display:inline;fill:#ffcc00;fill-opacity:1;stroke-width:0.908516;opacity:0.7605985"
       id="path60"
       fill="#f9a826"
       d="m 1084.538,147.17746 v 324.30308 a 25.588499,25.588499 0 0 1 -25.5841,25.59284 H 932.92511 A 25.588391,25.588391 0 0 1 907.34145,471.48054 V 147.17746 a 25.586473,25.586473 0 0 1 25.58366,-25.58375 h 15.29029 a 12.155187,12.155187 0 0 0 11.25648,16.74392 h 71.85442 a 12.155079,12.155079 0 0 0 11.2565,-16.74392 h 16.3714 a 25.586546,25.586546 0 0 1 25.5838,25.58375 z" />
    <rect
       style="display:inline;stroke-width:0.908516"
       id="rect62"
       fill="#3f3d56"
       height="11.125533"
       width="37.543034"
       y="337.79279"
       x="977.64178" />
    <rect
       style="display:inline;stroke-width:0.908516"
       id="rect64"
       fill="#3f3d56"
       height="4.7680893"
       width="128.31874"
       y="251.17264"
       x="932.25397" />
    <rect
       style="display:inline;stroke-width:0.908516"
       id="rect66"
       fill="#3f3d56"
       height="4.7680893"
       width="128.31874"
       y="266.27155"
       x="932.25397" />
    <rect
       style="display:inline;stroke-width:0.908516"
       id="rect68"
       fill="#3f3d56"
       height="4.7680893"
       width="128.31874"
       y="281.37045"
       x="932.25397" />
    <rect
       style="display:inline;stroke-width:0.908516"
       id="rect70"
       fill="#3f3d56"
       height="4.7680893"
       width="128.31874"
       y="296.46939"
       x="932.25397" />
    <rect
       style="display:inline;stroke-width:0.908516"
       id="rect72"
       fill="#3f3d56"
       height="4.7680893"
       width="128.31874"
       y="311.56833"
       x="932.25397" />
    <g
       style="display:inline;opacity:0.42394;fill:#575785;fill-opacity:1"
       transform="matrix(0.39176337,0,0,0.46392069,544.20364,328.71863)"
       id="g1040">
      <polygon
         id="polygon58"
         fill="#ffd42f"
         points="535.72,417.79 519.06,401.13 447.014,472.275 519.06,543.42 535.27,527.21 480.786,472.725 "
         transform="translate(590.01867,-293.18968)"
         style="fill:#575785;fill-opacity:1" />
      <polygon
         id="polygon60"
         fill="#ffd42f"
         points="608.667,417.79 625.327,401.13 697.373,472.275 625.327,543.42 609.117,527.21 663.602,472.725 "
         transform="translate(590.01867,-293.18968)"
         style="fill:#575785;fill-opacity:1" />
    </g>
    <g
       style="display:inline;opacity:0.94014963"
       transform="matrix(0.65809044,0,0,0.64275221,669.98217,94.608399)"
       id="f3c2397c-d780-4cc6-97d8-1503d8277a2c"
       data-name="Group 13">
      <rect
         id="ad41612f-86f7-46b2-a964-3a5da7bcf3cf"
         data-name="Rectangle 55"
         x="437.40692"
         y="176.36275"
         width="29.75235"
         height="7.1626"
         fill="#3871c8" />
      <rect
         id="b9a0b375-cc2a-4c59-8850-661af54e4f62"
         data-name="Rectangle 56"
         x="559.72217"
         y="176.36275"
         width="10.46842"
         height="7.1626"
         fill="#3871c8" />
      <rect
         id="e174c2ab-9bc5-41ec-b37c-b06fbf8a9878"
         data-name="Rectangle 57"
         x="580.659"
         y="176.36275"
         width="10.46842"
         height="7.1626"
         fill="#3871c8" />
      <rect
         id="ba2479ac-4c7d-43b4-a028-73b1e20e4002"
         data-name="Rectangle 58"
         x="477.62769"
         y="176.36275"
         width="71.075058"
         height="7.1626"
         fill="#3871c8" />
      <rect
         id="ac60ef86-00f2-480b-8171-28b6fdfc1958"
         data-name="Rectangle 59"
         x="399.94098"
         y="222.6442"
         width="29.75235"
         height="7.1626"
         fill="#3871c8" />
      <rect
         id="b3d8298d-cd65-487a-8b19-4cee946356e7"
         data-name="Rectangle 60"
         x="522.25623"
         y="222.6442"
         width="10.46842"
         height="7.1626"
         fill="#3871c8" />
      <rect
         id="ed27f15f-f0c4-4569-8330-a6688f8e356c"
         data-name="Rectangle 61"
         x="543.19305"
         y="222.6442"
         width="10.46842"
         height="7.1626"
         fill="#3871c8" />
      <rect
         id="f685c005-adaf-4d60-acda-005b037d82a6"
         data-name="Rectangle 62"
         x="440.16177"
         y="222.6442"
         width="71.075058"
         height="7.1626"
         fill="#3871c8" />
      <rect
         id="eca7c7fc-83f8-48ca-a588-6606db47af3f"
         data-name="Rectangle 63"
         x="522.80719"
         y="192.34088"
         width="29.75235"
         height="7.1626"
         fill="#3871c8" />
      <rect
         id="a71b5b2f-f8b9-481d-a301-5e3357e5fe42"
         data-name="Rectangle 64"
         x="563.02795"
         y="192.34088"
         width="29.75235"
         height="7.1626"
         fill="#3871c8" />
      <rect
         id="abb3a25a-f854-41fc-8391-e6ad9fbe2417"
         data-name="Rectangle 66"
         x="399.94098"
         y="192.34088"
         width="10.46842"
         height="7.1626"
         fill="#3871c8" />
      <rect
         id="add2b425-b775-4eb5-9c25-8c4c14f957c9"
         data-name="Rectangle 67"
         x="420.87784"
         y="192.34088"
         width="10.46842"
         height="7.1626"
         fill="#3871c8" />
      <rect
         id="b7159612-3b84-4b0b-a885-612eaab04c06"
         data-name="Rectangle 68"
         x="441.81467"
         y="192.34088"
         width="71.075058"
         height="7.1626"
         fill="#3871c8" />
      <rect
         id="edfc7301-4de5-47dc-80e2-1ae2da982d6d"
         data-name="Rectangle 69"
         x="461.0986"
         y="207.76802"
         width="29.75235"
         height="7.1626"
         fill="#3871c8" />
      <rect
         id="e1009f91-6275-4375-80fa-0d778e331fdc"
         data-name="Rectangle 70"
         x="420.87784"
         y="207.76802"
         width="29.75235"
         height="7.1626"
         fill="#3871c8" />
      <rect
         id="a060fb9f-1f1a-4862-9a69-16dd49199e18"
         data-name="Rectangle 71"
         x="399.94101"
         y="207.76802"
         width="10.46842"
         height="7.1626"
         fill="#3871c8" />
      <rect
         id="b6754d5f-104f-449c-b9a9-cf9ac82bf5fe"
         data-name="Rectangle 73"
         x="582.31189"
         y="207.76802"
         width="10.46842"
         height="7.1626"
         fill="#3871c8" />
      <rect
         id="e6ed1ccd-2cfd-450f-a339-07df3a1ee6bb"
         data-name="Rectangle 74"
         x="500.7684"
         y="207.76802"
         width="71.075058"
         height="7.1626"
         fill="#3871c8" />
    </g>
    <g
       style="display:inline;opacity:0.73067332"
       data-name="Group 13"
       id="f3c2397c-d780-4cc6-97d8-1503d8277a2c-7"
       transform="matrix(0.65809044,0,0,0.64275221,670.92905,54.365519)">
      <rect
         fill="#3871c8"
         height="7.1626"
         width="29.75235"
         y="176.36275"
         x="437.40692"
         data-name="Rectangle 55"
         id="ad41612f-86f7-46b2-a964-3a5da7bcf3cf-2" />
      <rect
         fill="#3871c8"
         height="7.1626"
         width="10.46842"
         y="176.36275"
         x="559.72217"
         data-name="Rectangle 56"
         id="b9a0b375-cc2a-4c59-8850-661af54e4f62-7" />
      <rect
         fill="#3871c8"
         height="7.1626"
         width="10.46842"
         y="176.36275"
         x="580.659"
         data-name="Rectangle 57"
         id="e174c2ab-9bc5-41ec-b37c-b06fbf8a9878-6" />
      <rect
         fill="#3871c8"
         height="7.1626"
         width="71.075058"
         y="176.36275"
         x="477.62769"
         data-name="Rectangle 58"
         id="ba2479ac-4c7d-43b4-a028-73b1e20e4002-2" />
      <rect
         fill="#3871c8"
         height="7.1626"
         width="29.75235"
         y="222.6442"
         x="399.94098"
         data-name="Rectangle 59"
         id="ac60ef86-00f2-480b-8171-28b6fdfc1958-6" />
      <rect
         fill="#3871c8"
         height="7.1626"
         width="10.46842"
         y="222.6442"
         x="522.25623"
         data-name="Rectangle 60"
         id="b3d8298d-cd65-487a-8b19-4cee946356e7-1" />
      <rect
         fill="#3871c8"
         height="7.1626"
         width="10.46842"
         y="222.6442"
         x="543.19305"
         data-name="Rectangle 61"
         id="ed27f15f-f0c4-4569-8330-a6688f8e356c-9" />
      <rect
         fill="#3871c8"
         height="7.1626"
         width="71.075058"
         y="222.6442"
         x="440.16177"
         data-name="Rectangle 62"
         id="f685c005-adaf-4d60-acda-005b037d82a6-3" />
      <rect
         fill="#3871c8"
         height="7.1626"
         width="29.75235"
         y="192.34088"
         x="522.80719"
         data-name="Rectangle 63"
         id="eca7c7fc-83f8-48ca-a588-6606db47af3f-9" />
      <rect
         fill="#3871c8"
         height="7.1626"
         width="29.75235"
         y="192.34088"
         x="563.02795"
         data-name="Rectangle 64"
         id="a71b5b2f-f8b9-481d-a301-5e3357e5fe42-9" />
      <rect
         fill="#3871c8"
         height="7.1626"
         width="10.46842"
         y="192.34088"
         x="399.94098"
         data-name="Rectangle 66"
         id="abb3a25a-f854-41fc-8391-e6ad9fbe2417-8" />
      <rect
         fill="#3871c8"
         height="7.1626"
         width="10.46842"
         y="192.34088"
         x="420.87784"
         data-name="Rectangle 67"
         id="add2b425-b775-4eb5-9c25-8c4c14f957c9-8" />
      <rect
         fill="#3871c8"
         height="7.1626"
         width="71.075058"
         y="192.34088"
         x="441.81467"
         data-name="Rectangle 68"
         id="b7159612-3b84-4b0b-a885-612eaab04c06-7" />
      <rect
         fill="#3871c8"
         height="7.1626"
         width="29.75235"
         y="207.76802"
         x="461.0986"
         data-name="Rectangle 69"
         id="edfc7301-4de5-47dc-80e2-1ae2da982d6d-8" />
      <rect
         fill="#3871c8"
         height="7.1626"
         width="29.75235"
         y="207.76802"
         x="420.87784"
         data-name="Rectangle 70"
         id="e1009f91-6275-4375-80fa-0d778e331fdc-8" />
      <rect
         fill="#3871c8"
         height="7.1626"
         width="10.46842"
         y="207.76802"
         x="399.94101"
         data-name="Rectangle 71"
         id="a060fb9f-1f1a-4862-9a69-16dd49199e18-4" />
      <rect
         fill="#3871c8"
         height="7.1626"
         width="10.46842"
         y="207.76802"
         x="582.31189"
         data-name="Rectangle 73"
         id="b6754d5f-104f-449c-b9a9-cf9ac82bf5fe-4" />
      <rect
         fill="#3871c8"
         height="7.1626"
         width="71.075058"
         y="207.76802"
         x="500.7684"
         data-name="Rectangle 74"
         id="e6ed1ccd-2cfd-450f-a339-07df3a1ee6bb-5" />
    </g>
  </g>
  <g
     inkscape:groupmode="layer"
     id="layer2"
     inkscape:label="Layer 2">
    <rect
       style="display:inline;stroke-width:1.17582"
       x="86.55072"
       y="125.61648"
       width="742.26453"
       height="413.58206"
       fill="#ffd42f"
       id="rect12" />
    <path
       style="display:inline;stroke-width:1.17582;fill:#4c4c52;fill-opacity:1"
       id="path10"
       fill="#3f3d56"
       d="M 835.10026,102.08622 H 527.2944 V 95.819819 H 387.72331 v 6.266401 H 78.648703 a 20.820726,20.565572 0 0 0 -20.82075,20.56557 V 538.9674 a 20.820797,20.565643 0 0 0 20.82075,20.56567 H 835.10026 A 20.820797,20.565643 0 0 0 855.92099,538.9674 V 122.65179 a 20.820726,20.565572 0 0 0 -20.82073,-20.56557 z" />
    <rect
       style="display:inline;stroke-width:1.17582;fill:#ffd42f;fill-opacity:1;opacity:0.9127182"
       x="86.55069"
       y="125.61648"
       width="742.26453"
       height="413.58206"
       fill="#ffd42f"
       id="rect12-3" />
    <ellipse
       ry="7.519671"
       rx="7.6129665"
       style="display:inline;stroke-width:1.17582;fill:#ffffff;opacity:0.40149626"
       id="circle14"
       fill="#f9a826"
       cy="111.29418"
       cx="458.32455" />
    <polygon
       style="display:inline;fill:#ff0000;opacity:0.08478803"
       transform="matrix(1.1830967,0,0,1.1685981,26.107239,80.289329)"
       id="polygon16"
       opacity="0.1"
       points="50.406,403.667 50.406,49.754 498.374,403.667 " />
    <path
       style="display:inline;stroke-width:0.944119;fill:#444444;fill-opacity:1"
       id="path36"
       fill="#3f3d56"
       d="m 850.62004,539.19852 h -69.19423 v -3.47961 a 0.9884614,0.68990679 0 0 0 -0.9885,-0.68992 h -23.72372 a 0.9884614,0.68990679 0 0 0 -0.98849,0.68992 v 3.47961 h -14.82735 v -3.47961 a 0.98845012,0.6898989 0 0 0 -0.98848,-0.68992 h -23.72375 a 0.9884614,0.68990679 0 0 0 -0.98847,0.68992 v 3.47961 H 700.3697 v -3.47961 a 0.9884614,0.68990679 0 0 0 -0.98848,-0.68992 h -23.72369 a 0.9884614,0.68990679 0 0 0 -0.9885,0.68992 v 3.47961 h -14.82736 v -3.47961 a 0.9884614,0.68990679 0 0 0 -0.98851,-0.68992 h -23.72373 a 0.9884614,0.68990679 0 0 0 -0.98848,0.68992 v 3.47961 h -14.82734 v -3.47961 a 0.9884614,0.68990679 0 0 0 -0.98849,-0.68992 h -23.72374 a 0.98845012,0.6898989 0 0 0 -0.98849,0.68992 v 3.47961 h -14.82734 v -3.47961 a 0.9884614,0.68990679 0 0 0 -0.98848,-0.68992 h -23.72374 a 0.9884614,0.68990679 0 0 0 -0.98849,0.68992 v 3.47961 h -14.82737 v -3.47961 a 0.9884614,0.68990679 0 0 0 -0.98849,-0.68992 H 351.43307 a 0.9884614,0.68990679 0 0 0 -0.98849,0.68992 v 3.47961 h -14.82734 v -3.47961 a 0.9884614,0.68990679 0 0 0 -0.98848,-0.68992 h -23.72373 a 0.98845012,0.6898989 0 0 0 -0.98848,0.68992 v 3.47961 h -14.82734 v -3.47961 a 0.9884614,0.68990679 0 0 0 -0.9885,-0.68992 h -23.72374 a 0.9884614,0.68990679 0 0 0 -0.98848,0.68992 v 3.47961 h -14.82734 v -3.47961 a 0.98845012,0.6898989 0 0 0 -0.98848,-0.68992 h -23.72374 a 0.9884614,0.68990679 0 0 0 -0.9885,0.68992 v 3.47961 h -14.82728 v -3.47961 a 0.9884614,0.68990679 0 0 0 -0.98849,-0.68992 h -23.72379 a 0.9884614,0.68990679 0 0 0 -0.98851,0.68992 v 3.47961 h -14.82731 v -3.47961 a 0.9884614,0.68990679 0 0 0 -0.98849,-0.68992 H 148.7928 a 0.9884614,0.68990679 0 0 0 -0.98847,0.68992 v 3.47961 h -14.82734 v -3.47961 a 0.9884614,0.68990679 0 0 0 -0.98848,-0.68992 h -23.72372 a 0.98845012,0.6898989 0 0 0 -0.98849,0.68992 v 3.47961 H 61.805787 a 23.723763,16.558244 0 0 0 -23.723735,16.55823 v 7.48724 a 23.72374,16.558228 0 0 0 23.723735,16.55818 H 850.62004 a 23.723728,16.55822 0 0 0 23.72373,-16.55818 v -7.48724 a 23.723751,16.558236 0 0 0 -23.72373,-16.55823 z" />
    <g
       style="display:inline"
       transform="matrix(0.88624687,0,0,0.85283001,-346.90133,155.40778)"
       id="g986">
      <g
         id="g84"
         opacity="0.7"
         transform="translate(513.30889,-93.860249)">
        <rect
           id="rect82"
           fill="url(#43bfcda2-dcfb-4411-a28b-16db327cb63c)"
           ry="21.34"
           rx="21.34"
           height="162"
           width="182.77"
           y="115"
           x="573.03998"
           style="fill:url(#43bfcda2-dcfb-4411-a28b-16db327cb63c)" />
      </g>
      <rect
         id="rect86"
         fill="#e0e0e0"
         ry="21.34"
         rx="21.34"
         height="156"
         width="176"
         y="24.139751"
         x="1089.7289" />
      <path
         id="path88"
         fill="#cac9c2"
         d="m 1153.2389,142.76976 -23.66,-41 23.66,-41.000009 h 47.31 l 23.66,41.000009 -23.66,41 h -47.31" />
      <path
         id="path90"
         fill="#ffffff"
         d="m 1177.7089,120.49976 a 18.44,18.44 0 1 1 18.44,-18.44 18.46,18.46 0 0 1 -18.44,18.44" />
      <path
         id="path92"
         fill="#5072aa"
         d="m 1214.7889,47.079751 a 10.13,10.13 0 0 0 -7.91,-4.57 h -58.3 a 10.13,10.13 0 0 0 -7.91,4.57 l -17,29.5 a 9.69,9.69 0 0 0 1.06,5.35 l 11.53,19.710009 20.58,-35.560009 h 65.06 a 9.5,9.5 0 0 1 4.76,1.5 l -11.84,-20.51" />
      <path
         id="path94"
         fill="#4d6796"
         d="m 1124.3789,75.299751 -0.75,1.29 a 9.7,9.7 0 0 0 1.06,5.35 l 11.53,19.710009 6.13,-10.600009 -18,-15.76" />
      <path
         id="path96"
         fill="#ffffff"
         d="m 1150.0789,57.679751 a 3.56,3.56 0 1 1 3.56,-3.56 3.56,3.56 0 0 1 -3.56,3.56 m 58.3,-3.56 a 3.2952428,3.2952428 0 1 1 -6.59,0.08 c 0,0 0,-0.06 0,-0.08 a 3.295,3.295 0 0 1 6.59,0 z" />
      <path
         id="path98"
         fill="#cc4232"
         d="m 1243.9289,97.569756 -17.31,-30.000005 a 9.5,9.5 0 0 0 -4.76,-1.5 h -23.45 l 20.3,35.780009 -32.12,56.75 a 9.28,9.28 0 0 1 -3.3,3.16 h 23.6 a 10.13,10.13 0 0 0 7.91,-4.57 l 29.15,-50.49 a 10.12,10.12 0 0 0 0,-9.130004" />
      <path
         id="path100"
         fill="#b23f33"
         d="m 1227.4089,68.939751 -0.78,-1.35 a 9.49,9.49 0 0 0 -4.76,-1.5 h -23.46 l 6.11,10.76 22.89,-7.92" />
      <path
         id="path102"
         fill="#ffffff"
         d="m 1205.0789,153.03976 a 3.56,3.56 0 1 1 3.56,-3.56 3.56,3.56 0 0 1 -3.56,3.56 m 27.69,-47.42 a 3.56,3.56 0 1 1 3.56,-3.56 3.56,3.56 0 0 1 -3.56,3.56" />
      <path
         id="path104"
         fill="#ecb02a"
         d="m 1157.2589,137.61976 -32.55,-55.680009 a 9.7,9.7 0 0 1 -1.06,-5.35 l -12.11,21.000005 a 10.13,10.13 0 0 0 0,9.130004 l 29.17,50.47 a 10.13,10.13 0 0 0 7.91,4.56 h 34.69 a 9.28,9.28 0 0 0 3.3,-3.16 l 11.88,-21 h -41.23" />
      <path
         id="path106"
         fill="#c79732"
         d="m 1181.2989,161.75976 h 2 a 9.27,9.27 0 0 0 3.3,-3.16 l 11.88,-21 h -12.63 l -4.55,24.14" />
      <path
         id="path108"
         fill="#ffffff"
         d="m 1150.0789,153.03976 a 3.56,3.56 0 1 1 3.56,-3.56 3.56,3.56 0 0 1 -3.56,3.56 m -27.74,-47.42 a 3.56,3.56 0 1 1 3.56,-3.56 3.56,3.56 0 0 1 -3.56,3.56" />
    </g>
    <g
       style="display:inline"
       transform="matrix(0.83902078,0,0,0.84531172,-196.65405,191.61967)"
       id="g1016">
      <g
         id="g72"
         opacity="0.7"
         transform="translate(39.52406,-408.07106)">
        <rect
           id="rect70-4"
           fill="url(#894cb520-7283-4f65-92a7-edb841614828)"
           ry="21.34"
           rx="21.34"
           height="162"
           width="182.77"
           y="387"
           x="682.03998"
           style="fill:url(#894cb520-7283-4f65-92a7-edb841614828)" />
      </g>
      <rect
         id="rect74-9"
         fill="#e0e0e0"
         ry="21.34"
         rx="21.34"
         height="156"
         width="176"
         y="-18.071064"
         x="724.94403" />
      <path
         id="path76-5"
         fill="#252f3e"
         d="m 781.52406,48.148936 a 14.49,14.49 0 0 0 0.53,4.26 25.64,25.64 0 0 0 1.53,3.45 2.08,2.08 0 0 1 0.34,1.1 1.9,1.9 0 0 1 -0.91,1.44 l -3,2 a 2.3,2.3 0 0 1 -1.25,0.43 2.2,2.2 0 0 1 -1.44,-0.67 14.82,14.82 0 0 1 -1.72,-2.25 c -0.48,-0.81 -1,-1.72 -1.48,-2.83 a 17.69,17.69 0 0 1 -14.08,6.61 c -4,0 -7.23,-1.15 -9.58,-3.45 a 13.51,13.51 0 0 1 0.81,-19.06 c 2.92,-2.49 6.8,-3.74 11.73,-3.74 a 37.92,37.92 0 0 1 5.08,0.38 c 1.77,0.24 3.59,0.62 5.51,1.05 v -3.5 c 0,-3.64 -0.77,-6.18 -2.25,-7.66 -1.48,-1.48 -4.12,-2.2 -7.81,-2.2 a 21.79,21.79 0 0 0 -5.17,0.62 38.16,38.16 0 0 0 -5.17,1.63 13.74,13.74 0 0 1 -1.68,0.62 2.94,2.94 0 0 1 -0.77,0.14 c -0.67,0 -1,-0.48 -1,-1.48 v -2.35 a 3,3 0 0 1 0.34,-1.68 3.59,3.59 0 0 1 1.34,-1 27.57,27.57 0 0 1 6,-2.16 29,29 0 0 1 7.47,-0.91 c 5.7,0 9.87,1.29 12.55,3.88 2.68,2.59 4,6.51 4,11.78 v 15.55 z m -19.44,7.28 a 15.52,15.52 0 0 0 4.93,-0.86 10.67,10.67 0 0 0 4.55,-3.07 7.6,7.6 0 0 0 1.63,-3.07 17.19,17.19 0 0 0 0.48,-4.17 v -2 a 40,40 0 0 0 -4.41,-0.81 36.09,36.09 0 0 0 -4.5,-0.29 c -3.21,0 -5.56,0.62 -7.14,1.92 a 6.84,6.84 0 0 0 4.45,12.36 z m 38.46,5.17 a 2.67,2.67 0 0 1 -1.82,-0.48 3.9,3.9 0 0 1 -1,-1.87 l -11.25,-37 a 8.39,8.39 0 0 1 -0.43,-1.92 1.05,1.05 0 0 1 1.15,-1.2 h 4.69 a 2.65,2.65 0 0 1 1.87,0.48 3.92,3.92 0 0 1 1,1.87 l 8,31.71 7.47,-31.71 a 3.36,3.36 0 0 1 0.91,-1.87 3.29,3.29 0 0 1 1.92,-0.48 h 3.83 a 2.88,2.88 0 0 1 1.92,0.48 3.23,3.23 0 0 1 0.91,1.87 l 7.57,32.09 8.29,-32.09 a 4.11,4.11 0 0 1 1,-1.87 3.12,3.12 0 0 1 1.87,-0.48 h 4.45 a 1.06,1.06 0 0 1 1.2,1.2 4.78,4.78 0 0 1 -0.1,0.77 6.81,6.81 0 0 1 -0.34,1.2 l -11.54,37 a 3.67,3.67 0 0 1 -1,1.87 3.06,3.06 0 0 1 -1.82,0.48 h -4.12 a 2.88,2.88 0 0 1 -1.92,-0.48 3.4,3.4 0 0 1 -0.91,-1.92 l -7.42,-30.89 -7.38,30.84 a 3.74,3.74 0 0 1 -0.91,1.92 3,3 0 0 1 -1.92,0.48 z m 61.54,1.29 a 31.69,31.69 0 0 1 -7.38,-0.86 21.79,21.79 0 0 1 -5.51,-1.92 3.45,3.45 0 0 1 -1.48,-1.34 3.38,3.38 0 0 1 -0.29,-1.34 v -2.44 c 0,-1 0.38,-1.48 1.1,-1.48 a 2.71,2.71 0 0 1 0.86,0.14 c 0.29,0.1 0.72,0.29 1.2,0.48 a 26.05,26.05 0 0 0 5.27,1.68 28.76,28.76 0 0 0 5.7,0.57 12.92,12.92 0 0 0 7,-1.58 5.16,5.16 0 0 0 2.49,-4.55 4.66,4.66 0 0 0 -1.29,-3.35 12,12 0 0 0 -4.84,-2.49 l -6.99,-2.16 c -3.5,-1.1 -6.08,-2.73 -7.66,-4.89 a 11.41,11.41 0 0 1 -2.39,-6.94 10.66,10.66 0 0 1 1.29,-5.32 12.31,12.31 0 0 1 3.45,-3.93 15.2,15.2 0 0 1 5,-2.49 20.87,20.87 0 0 1 6,-0.81 24,24 0 0 1 3.21,0.19 c 1.1,0.14 2.11,0.34 3.11,0.53 1,0.19 1.87,0.48 2.73,0.77 a 10.45,10.45 0 0 1 2,0.86 4.14,4.14 0 0 1 1.44,1.2 2.58,2.58 0 0 1 0.43,1.58 v 2.25 c 0,1 -0.38,1.53 -1.1,1.53 a 5,5 0 0 1 -1.82,-0.57 21.91,21.91 0 0 0 -9.2,-1.87 12.36,12.36 0 0 0 -6.37,1.34 4.62,4.62 0 0 0 -2.25,4.26 4.52,4.52 0 0 0 1.44,3.4 14.31,14.31 0 0 0 5.27,2.63 l 6.8,2.16 c 3.45,1.1 5.94,2.63 7.42,4.6 a 10.84,10.84 0 0 1 2.2,6.71 12.31,12.31 0 0 1 -1.25,5.56 12.88,12.88 0 0 1 -3.5,4.21 15.44,15.44 0 0 1 -5.32,2.68 22.77,22.77 0 0 1 -6.85,1 z" />
      <path
         id="path78-5"
         fill="#ff9900"
         d="m 871.13406,85.148936 c -15.76,11.64 -38.65,17.820004 -58.33,17.820004 a 105.53,105.53 0 0 1 -71.22,-27.160004 c -1.48,-1.34 -0.14,-3.16 1.63,-2.11 a 141.44,141.44 0 0 0 125.62,7.81 c 2.63,-1.2 4.89,1.72 2.3,3.64 z" />
      <path
         id="path80"
         fill="#ff9900"
         d="m 877.69406,77.698936 c -2,-2.59 -13.31,-1.25 -18.44,-0.62 -1.53,0.19 -1.77,-1.15 -0.38,-2.16 9,-6.32 23.8,-4.5 25.53,-2.39 1.73,2.11 -0.48,17 -8.91,24 -1.29,1.1 -2.54,0.53 -2,-0.91 1.95,-4.71 6.21,-15.39 4.2,-17.92 z" />
    </g>
    <path
       d="m 173.27264,442.27667 a 42.541361,42.539914 0 0 1 83.4669,-8.96891 c 0.51538,-0.0185 1.0303,-0.0392 1.55018,-0.0392 a 16.699915,16.699347 0 0 1 5.21275,0.88681 c 21.161,6.94832 15.58879,38.5408 -6.68382,38.5408 h -54.73767 a 28.775148,28.774169 0 0 1 -28.83849,-29.7921 q 0.0128,-0.31323 0.0301,-0.6274 z"
       fill="#ffd42f"
       id="path30"
       style="stroke-width:0.945216;opacity:0.6084788" />
    <polygon
       points="457.438,377.377 463.877,366.224 470.316,355.07 462.397,355.07 462.397,336.649 452.478,336.649 452.478,355.07 444.559,355.07 450.998,366.224 "
       fill="#ffffff"
       id="polygon32"
       transform="matrix(1.3854188,0,0,0.63873249,-417.61402,213.39745)"
       style="opacity:0.304239" />
    <path
       style="display:inline;stroke-width:0.466817;opacity:0.82793017"
       d="m 595.16432,403.80711 v 32.82346 a 8.3699926,7.765226 0 0 1 -8.39907,7.85066 c -4.67207,0 -9.20843,-3.51166 -9.20843,-7.85066 v -32.82346 c 0,-4.28057 4.52181,-7.79222 9.20843,-7.79222 a 8.4329979,7.8236788 0 0 1 8.39907,7.79222 z m 3.3005,44.48704 a 9.0194304,8.3677393 0 0 0 9.03883,8.38573 h 6.07757 l 0.092,17.3155 c 0,10.45407 16.86115,10.37313 16.86115,0 v -17.311 h 11.36031 v 17.31551 c 0,10.4001 16.96293,10.42708 16.96293,0 v -17.31551 h 6.16966 a 9.0097373,8.3587466 0 0 0 8.98064,-8.38573 v -50.85391 h -75.54317 z m 75.74674,-53.58321 h -76.09084 c 0,-12.14019 7.81749,-22.67069 19.42498,-28.16524 l -5.81587,-10.00442 c -0.85298,-1.38938 1.31342,-2.24818 2.04524,-1.07463 l 5.92735,10.08983 a 41.263531,38.28207 0 0 1 33.0777,0 l 5.8934,-10.05836 c 0.76576,-1.21851 2.90794,-0.31025 2.04525,1.07464 l -5.81586,9.97294 c 11.49117,5.49455 19.30865,16.03854 19.30865,28.16524 z m -52.13918,-15.73728 a 3.2084163,2.9765951 0 0 0 -3.20843,-2.9766 3.2084163,2.9765951 0 0 0 0,5.9487 3.2084163,2.9765951 0 0 0 3.20843,-2.96311 z m 34.63829,0 a 3.1599509,2.9316314 0 1 0 -3.11633,2.97659 3.1890302,2.9586096 0 0 0 3.11633,-2.9676 z m 28.9533,17.03223 a 8.3748391,7.7697225 0 0 0 -8.39907,7.79221 v 32.82348 a 8.4281512,7.8191824 0 0 0 8.39907,7.85066 c 4.70599,0 9.20844,-3.51166 9.20844,-7.85066 V 403.7981 c -0.0146,-4.35248 -4.53637,-7.78321 -9.20844,-7.78321 z"
       fill="#ffffff"
       id="path76" />
  </g>
</svg>
